<?xml version="1.0" encoding="UTF-8" standalone="no"?>
<!DOCTYPE svg PUBLIC "-//W3C//DTD SVG 1.1//EN" "http://www.w3.org/Graphics/SVG/1.1/DTD/svg11.dtd">
<svg width="100%" height="100%" viewBox="0 0 772 772" version="1.1" xmlns="http://www.w3.org/2000/svg" xmlns:xlink="http://www.w3.org/1999/xlink" xml:space="preserve" xmlns:serif="http://www.serif.com/" style="fill-rule:evenodd;clip-rule:evenodd;stroke-linejoin:round;stroke-miterlimit:2;">
    <g transform="matrix(0.5,-6.12323e-17,6.12323e-17,-1,1.13687e-13,772)">
        <rect x="0" y="0" width="1544" height="772" style="fill:url(#_Radial1);"/>
    </g>
    <g transform="matrix(1,0,0,1,-337.994,-122.475)">
        <path d="M560.265,267L568.39,267C577.39,267 581.89,263.083 581.89,255.25C581.89,247.417 577.39,243.5 568.39,243.5L560.265,243.5L560.265,267ZM560.265,318L535.765,318L535.765,223.75L574.765,223.75C585.348,223.75 593.452,226.5 599.077,232C604.702,237.5 607.515,245.25 607.515,255.25C607.515,265.25 604.702,273 599.077,278.5C593.452,284 585.348,286.75 574.765,286.75L560.265,286.75L560.265,318Z" style="fill:rgb(255,148,20);fill-rule:nonzero;"/>
        <path d="M641.015,253.875L641.015,290C641.015,297.917 644.848,301.875 652.515,301.875C660.182,301.875 664.015,297.917 664.015,290L664.015,253.875L686.64,253.875L686.64,294.375C686.64,303.042 683.786,309.542 678.077,313.875C672.369,318.208 663.848,320.375 652.515,320.375C641.182,320.375 632.661,318.208 626.952,313.875C621.244,309.542 618.39,303.042 618.39,294.375L618.39,253.875L641.015,253.875Z" style="fill:rgb(255,148,20);fill-rule:nonzero;"/>
        <path d="M702.015,253.875L724.64,253.875L724.64,264.375C727.057,260.542 730.015,257.604 733.515,255.562C737.015,253.521 741.098,252.5 745.765,252.5L747.702,252.5C748.411,252.5 749.223,252.583 750.14,252.75L750.14,274.375C747.14,272.875 743.89,272.125 740.39,272.125C735.14,272.125 731.202,273.687 728.577,276.812C725.952,279.937 724.64,284.5 724.64,290.5L724.64,318L702.015,318L702.015,253.875Z" style="fill:rgb(255,148,20);fill-rule:nonzero;"/>
        <path d="M782.89,253.875L782.89,318L760.265,318L760.265,253.875L782.89,253.875ZM758.765,229.25C758.765,227.5 759.098,225.854 759.765,224.312C760.432,222.771 761.348,221.417 762.515,220.25C763.682,219.083 765.036,218.167 766.577,217.5C768.119,216.833 769.765,216.5 771.515,216.5C773.265,216.5 774.911,216.833 776.452,217.5C777.994,218.167 779.348,219.083 780.515,220.25C781.682,221.417 782.598,222.771 783.265,224.312C783.932,225.854 784.265,227.5 784.265,229.25C784.265,231 783.932,232.646 783.265,234.187C782.598,235.729 781.682,237.083 780.515,238.25C779.348,239.417 777.994,240.333 776.452,241C774.911,241.667 773.265,242 771.515,242C769.765,242 768.119,241.667 766.577,241C765.036,240.333 763.682,239.417 762.515,238.25C761.348,237.083 760.432,235.729 759.765,234.187C759.098,232.646 758.765,231 758.765,229.25Z" style="fill:rgb(255,148,20);fill-rule:nonzero;"/>
        <path d="M822.89,272.75L822.89,318L800.265,318L800.265,272.75L792.14,272.75L792.14,253.875L800.265,253.875L800.265,244.25C800.265,238.917 800.765,234.667 801.765,231.5C802.598,228.833 803.932,226.354 805.765,224.062C807.598,221.771 809.744,219.792 812.202,218.125C814.661,216.458 817.307,215.167 820.14,214.25C822.973,213.333 825.765,212.875 828.515,212.875C830.432,212.875 832.202,213.083 833.827,213.5C835.452,213.917 837.098,214.5 838.765,215.25L838.765,235C837.265,234.25 835.869,233.687 834.577,233.312C833.286,232.937 831.932,232.75 830.515,232.75C829.598,232.75 828.661,232.896 827.702,233.187C826.744,233.479 825.848,234.083 825.015,235C824.182,235.917 823.619,237.229 823.327,238.937C823.036,240.646 822.89,242.958 822.89,245.875L822.89,253.875L838.765,253.875L838.765,272.75L822.89,272.75Z" style="fill:rgb(255,148,20);fill-rule:nonzero;"/>
        <path d="M870.515,309.25L839.515,253.875L865.765,253.875L882.89,286.75L899.515,253.875L925.515,253.875L874.015,350L848.64,350L870.515,309.25Z" style="fill:rgb(255,148,20);fill-rule:nonzero;"/>
        <path d="M441.161,405.167L451.994,445.75L465.328,405.167L478.328,405.167L491.661,445.75L502.494,405.167L519.578,405.167L500.828,468L484.161,468L471.828,431.583L459.494,468L442.828,468L424.078,405.167L441.161,405.167Z" style="fill:rgb(255,148,20);fill-rule:nonzero;"/>
        <path d="M542.494,434L547.911,434C553.911,434 556.911,431.389 556.911,426.167C556.911,420.944 553.911,418.333 547.911,418.333L542.494,418.333L542.494,434ZM542.494,468L526.161,468L526.161,405.167L552.161,405.167C559.216,405.167 564.619,407 568.369,410.667C572.119,414.333 573.994,419.5 573.994,426.167C573.994,432.833 572.119,438 568.369,441.667C564.619,445.333 559.216,447.167 552.161,447.167L542.494,447.167L542.494,468Z" style="fill:rgb(255,148,20);fill-rule:nonzero;"/>
        <path d="M618.661,419L598.994,419L598.994,429.5L616.911,429.5L616.911,443.333L598.994,443.333L598.994,468L582.661,468L582.661,405.167L618.661,405.167L618.661,419Z" style="fill:rgb(255,148,20);fill-rule:nonzero;"/>
        <path d="M640.578,446.417C640.578,447.861 640.841,449.181 641.369,450.375C641.897,451.569 642.591,452.611 643.453,453.5C644.314,454.389 645.341,455.083 646.536,455.583C647.73,456.083 648.994,456.333 650.328,456.333C651.661,456.333 652.925,456.083 654.119,455.583C655.314,455.083 656.341,454.389 657.203,453.5C658.064,452.611 658.758,451.569 659.286,450.375C659.814,449.181 660.078,447.889 660.078,446.5C660.078,445.167 659.814,443.903 659.286,442.708C658.758,441.514 658.064,440.472 657.203,439.583C656.341,438.694 655.314,438 654.119,437.5C652.925,437 651.661,436.75 650.328,436.75C648.994,436.75 647.73,437 646.536,437.5C645.341,438 644.314,438.694 643.453,439.583C642.591,440.472 641.897,441.5 641.369,442.667C640.841,443.833 640.578,445.083 640.578,446.417ZM624.661,446.25C624.661,443.083 625.3,440.125 626.578,437.375C627.855,434.625 629.633,432.236 631.911,430.208C634.189,428.181 636.897,426.583 640.036,425.417C643.175,424.25 646.605,423.667 650.328,423.667C653.994,423.667 657.397,424.236 660.536,425.375C663.675,426.514 666.397,428.097 668.703,430.125C671.008,432.153 672.8,434.569 674.078,437.375C675.355,440.181 675.994,443.278 675.994,446.667C675.994,450.056 675.341,453.153 674.036,455.958C672.73,458.764 670.939,461.181 668.661,463.208C666.383,465.236 663.647,466.806 660.453,467.917C657.258,469.028 653.8,469.583 650.078,469.583C646.411,469.583 643.022,469.028 639.911,467.917C636.8,466.806 634.119,465.222 631.869,463.167C629.619,461.111 627.855,458.653 626.578,455.792C625.3,452.931 624.661,449.75 624.661,446.25Z" style="fill:rgb(255,148,20);fill-rule:nonzero;"/>
        <path d="M684.661,425.25L699.744,425.25L699.744,432.25C701.355,429.694 703.328,427.736 705.661,426.375C707.994,425.014 710.716,424.333 713.828,424.333L715.119,424.333C715.591,424.333 716.133,424.389 716.744,424.5L716.744,438.917C714.744,437.917 712.578,437.417 710.244,437.417C706.744,437.417 704.119,438.458 702.369,440.542C700.619,442.625 699.744,445.667 699.744,449.667L699.744,468L684.661,468L684.661,425.25Z" style="fill:rgb(255,148,20);fill-rule:nonzero;"/>
        <path d="M723.494,425.25L738.578,425.25L738.578,430.5C742.689,426.556 747.3,424.583 752.411,424.583C758.744,424.583 763.578,427.25 766.911,432.583C770.3,427.194 775.133,424.5 781.411,424.5C783.411,424.5 785.3,424.792 787.078,425.375C788.855,425.958 790.383,426.875 791.661,428.125C792.939,429.375 793.953,431 794.703,433C795.453,435 795.828,437.417 795.828,440.25L795.828,468L780.744,468L780.744,446.917C780.744,444.75 780.591,442.972 780.286,441.583C779.98,440.194 779.536,439.111 778.953,438.333C778.369,437.556 777.689,437.028 776.911,436.75C776.133,436.472 775.3,436.333 774.411,436.333C769.578,436.333 767.161,439.861 767.161,446.917L767.161,468L752.078,468L752.078,446.917C752.078,444.75 751.939,442.958 751.661,441.542C751.383,440.125 750.98,439 750.453,438.167C749.925,437.333 749.244,436.764 748.411,436.458C747.578,436.153 746.605,436 745.494,436C744.55,436 743.661,436.139 742.828,436.417C741.994,436.694 741.258,437.236 740.619,438.042C739.98,438.847 739.48,439.958 739.119,441.375C738.758,442.792 738.578,444.639 738.578,446.917L738.578,468L723.494,468L723.494,425.25Z" style="fill:rgb(255,148,20);fill-rule:nonzero;"/>
        <path d="M834.494,436.25C831.716,434.806 828.994,434.083 826.328,434.083C824.939,434.083 823.814,434.361 822.953,434.917C822.091,435.472 821.661,436.222 821.661,437.167C821.661,437.667 821.73,438.069 821.869,438.375C822.008,438.681 822.314,438.972 822.786,439.25C823.258,439.528 823.953,439.778 824.869,440C825.786,440.222 826.994,440.5 828.494,440.833C832.661,441.667 835.772,443.153 837.828,445.292C839.883,447.431 840.911,450.167 840.911,453.5C840.911,456 840.411,458.25 839.411,460.25C838.411,462.25 837.022,463.931 835.244,465.292C833.466,466.653 831.328,467.708 828.828,468.458C826.328,469.208 823.578,469.583 820.578,469.583C814.8,469.583 809.105,467.944 803.494,464.667L808.994,454C813.216,456.889 817.216,458.333 820.994,458.333C822.383,458.333 823.522,458.028 824.411,457.417C825.3,456.806 825.744,456.028 825.744,455.083C825.744,454.528 825.675,454.069 825.536,453.708C825.397,453.347 825.105,453.014 824.661,452.708C824.216,452.403 823.564,452.125 822.703,451.875C821.841,451.625 820.716,451.361 819.328,451.083C814.661,450.139 811.397,448.736 809.536,446.875C807.675,445.014 806.744,442.444 806.744,439.167C806.744,436.778 807.189,434.625 808.078,432.708C808.966,430.792 810.244,429.167 811.911,427.833C813.578,426.5 815.591,425.472 817.953,424.75C820.314,424.028 822.939,423.667 825.828,423.667C830.55,423.667 835.133,424.583 839.578,426.417L834.494,436.25Z" style="fill:rgb(255,148,20);fill-rule:nonzero;"/>
        <path d="M894.661,405.167L894.661,454.167L914.244,454.167L914.244,468L878.328,468L878.328,405.167L894.661,405.167Z" style="fill:rgb(255,148,20);fill-rule:nonzero;"/>
        <path d="M936.328,425.25L936.328,468L921.244,468L921.244,425.25L936.328,425.25ZM920.244,408.833C920.244,407.667 920.466,406.569 920.911,405.542C921.355,404.514 921.966,403.611 922.744,402.833C923.522,402.056 924.425,401.444 925.453,401C926.48,400.556 927.578,400.333 928.744,400.333C929.911,400.333 931.008,400.556 932.036,401C933.064,401.444 933.966,402.056 934.744,402.833C935.522,403.611 936.133,404.514 936.578,405.542C937.022,406.569 937.244,407.667 937.244,408.833C937.244,410 937.022,411.097 936.578,412.125C936.133,413.153 935.522,414.056 934.744,414.833C933.966,415.611 933.064,416.222 932.036,416.667C931.008,417.111 929.911,417.333 928.744,417.333C927.578,417.333 926.48,417.111 925.453,416.667C924.425,416.222 923.522,415.611 922.744,414.833C921.966,414.056 921.355,413.153 920.911,412.125C920.466,411.097 920.244,410 920.244,408.833Z" style="fill:rgb(255,148,20);fill-rule:nonzero;"/>
        <path d="M963.494,437.833L963.494,468L948.411,468L948.411,437.833L943.411,437.833L943.411,425.25L948.411,425.25L948.411,412.417L963.494,412.417L963.494,425.25L972.078,425.25L972.078,437.833L963.494,437.833Z" style="fill:rgb(255,148,20);fill-rule:nonzero;"/>
        <path d="M1009.83,440.417C1009.33,438.306 1008.3,436.611 1006.74,435.333C1005.19,434.056 1003.3,433.417 1001.08,433.417C998.744,433.417 996.841,434.028 995.369,435.25C993.897,436.472 992.966,438.194 992.578,440.417L1009.83,440.417ZM992.161,449.167C992.161,455.667 995.216,458.917 1001.33,458.917C1004.61,458.917 1007.08,457.583 1008.74,454.917L1023.33,454.917C1020.38,464.694 1013.02,469.583 1001.24,469.583C997.633,469.583 994.328,469.042 991.328,467.958C988.328,466.875 985.758,465.333 983.619,463.333C981.48,461.333 979.828,458.944 978.661,456.167C977.494,453.389 976.911,450.278 976.911,446.833C976.911,443.278 977.466,440.069 978.578,437.208C979.689,434.347 981.272,431.917 983.328,429.917C985.383,427.917 987.869,426.375 990.786,425.292C993.703,424.208 996.994,423.667 1000.66,423.667C1004.27,423.667 1007.52,424.208 1010.41,425.292C1013.3,426.375 1015.74,427.944 1017.74,430C1019.74,432.056 1021.27,434.569 1022.33,437.542C1023.38,440.514 1023.91,443.861 1023.91,447.583L1023.91,449.167L992.161,449.167Z" style="fill:rgb(255,148,20);fill-rule:nonzero;"/>
    </g>
    <g transform="matrix(1,0,0,1,-485.615,366.857)">
        <g transform="matrix(13.3039,-2.65031,2.65031,13.3039,648.467,31.8385)">
            <path d="M20,13L20,9C20,7.903 19.097,7 18,7L6,7C4.903,7 4,7.903 4,9L4,14C4,15.097 4.903,16 6,16L13,16M22,22L17,17M17,22L22,17" style="fill:none;fill-rule:nonzero;stroke:rgb(173,184,194);stroke-width:1.57px;"/>
        </g>
    </g>
    <defs>
        <radialGradient id="_Radial1" cx="0" cy="0" r="1" gradientUnits="userSpaceOnUse" gradientTransform="matrix(1574.88,-779.72,-779.72,-1574.88,0,772)"><stop offset="0" style="stop-color:rgb(48,35,174);stop-opacity:1"/><stop offset="1" style="stop-color:rgb(200,109,215);stop-opacity:1"/></radialGradient>
    </defs>
</svg>
